<svg xmlns="http://www.w3.org/2000/svg" xmlns:xlink="http://www.w3.org/1999/xlink" width="1080" zoomAndPan="magnify" viewBox="0 0 810 1012.49997" height="1350" preserveAspectRatio="xMidYMid meet" version="1.0"><defs><g/></defs><g fill="#e61f93" fill-opacity="1"><g transform="translate(371.810426, 532.181906)"><g><path d="M 23.046875 -31.703125 C 23.046875 -31.703125 23.378906 -31.125 24.046875 -29.96875 C 24.710938 -28.820312 25.617188 -27.304688 26.765625 -25.421875 C 27.910156 -23.535156 29.25 -21.429688 30.78125 -19.109375 C 32.3125 -16.785156 33.945312 -14.445312 35.6875 -12.09375 C 37.425781 -9.75 39.210938 -7.539062 41.046875 -5.46875 C 42.878906 -3.40625 44.664062 -1.6875 46.40625 -0.3125 C 46.40625 -0.3125 45.894531 -0.234375 44.875 -0.078125 C 43.851562 0.078125 42.578125 0.15625 41.046875 0.15625 C 39.816406 0.15625 38.515625 0.0546875 37.140625 -0.140625 C 35.765625 -0.347656 34.460938 -0.734375 33.234375 -1.296875 C 32.367188 -1.753906 31.21875 -2.773438 29.78125 -4.359375 C 28.351562 -5.941406 26.796875 -7.816406 25.109375 -9.984375 C 23.429688 -12.160156 21.800781 -14.367188 20.21875 -16.609375 C 18.632812 -18.859375 17.226562 -20.890625 16 -22.703125 C 14.78125 -24.515625 13.941406 -25.804688 13.484375 -26.578125 L 13.484375 -8.890625 C 13.484375 -8.890625 13.519531 -8.46875 13.59375 -7.625 C 13.664062 -6.78125 13.894531 -5.691406 14.28125 -4.359375 C 14.664062 -3.035156 15.316406 -1.660156 16.234375 -0.234375 L 1.15625 -0.234375 C 2.125 -1.304688 2.796875 -2.46875 3.171875 -3.71875 C 3.554688 -4.96875 3.800781 -6.085938 3.90625 -7.078125 C 4.007812 -8.078125 4.0625 -8.679688 4.0625 -8.890625 L 4.0625 -44.875 C 4.0625 -45.125 4.007812 -45.734375 3.90625 -46.703125 C 3.800781 -47.679688 3.546875 -48.796875 3.140625 -50.046875 C 2.734375 -51.296875 2.070312 -52.457031 1.15625 -53.53125 L 16.234375 -53.53125 C 15.316406 -52.101562 14.664062 -50.710938 14.28125 -49.359375 C 13.894531 -48.003906 13.664062 -46.90625 13.59375 -46.0625 C 13.519531 -45.21875 13.484375 -44.796875 13.484375 -44.796875 L 13.484375 -29.640625 C 13.578125 -29.785156 14.300781 -30.519531 15.65625 -31.84375 C 17.007812 -33.175781 18.769531 -34.988281 20.9375 -37.28125 C 23.113281 -39.582031 25.503906 -42.289062 28.109375 -45.40625 C 28.816406 -46.175781 29.171875 -46.914062 29.171875 -47.625 C 28.765625 -49.769531 27.847656 -51.738281 26.421875 -53.53125 L 41.734375 -53.453125 C 39.285156 -50.898438 37.164062 -48.640625 35.375 -46.671875 C 33.59375 -44.703125 32.023438 -42.914062 30.671875 -41.3125 C 29.316406 -39.707031 28.039062 -38.140625 26.84375 -36.609375 C 25.644531 -35.078125 24.378906 -33.441406 23.046875 -31.703125 Z M 23.046875 -31.703125 "/></g></g></g><g fill="#e61f93" fill-opacity="1"><g transform="translate(417.446931, 532.181906)"><g><path d="M 23.28125 -4.515625 C 24.457031 -4.515625 25.65625 -4.601562 26.875 -4.78125 C 28.101562 -4.957031 29.28125 -5.148438 30.40625 -5.359375 C 30.25 -5.148438 29.890625 -4.710938 29.328125 -4.046875 C 28.765625 -3.390625 27.984375 -2.664062 26.984375 -1.875 C 25.992188 -1.082031 24.71875 -0.394531 23.15625 0.1875 C 21.601562 0.78125 19.753906 1.078125 17.609375 1.078125 C 12.765625 1.078125 8.875 -0.59375 5.9375 -3.9375 C 3 -7.28125 1.53125 -12.53125 1.53125 -19.6875 C 1.53125 -23.457031 2.101562 -26.8125 3.25 -29.75 C 4.40625 -32.6875 6.164062 -34.992188 8.53125 -36.671875 C 10.90625 -38.359375 13.957031 -39.203125 17.6875 -39.203125 C 19.882812 -39.203125 21.75 -38.921875 23.28125 -38.359375 C 24.8125 -37.796875 26.046875 -37.144531 26.984375 -36.40625 C 27.929688 -35.664062 28.632812 -35.015625 29.09375 -34.453125 C 29.550781 -33.898438 29.78125 -33.625 29.78125 -33.625 L 12.5625 -12.328125 C 12.5625 -12.328125 12.570312 -12.222656 12.59375 -12.015625 C 12.625 -11.816406 12.738281 -11.515625 12.9375 -11.109375 C 13.851562 -9.066406 14.847656 -7.582031 15.921875 -6.65625 C 16.992188 -5.738281 18.144531 -5.148438 19.375 -4.890625 C 20.601562 -4.640625 21.90625 -4.515625 23.28125 -4.515625 Z M 8.421875 -29.40625 C 8.421875 -28.03125 8.585938 -26.535156 8.921875 -24.921875 C 9.253906 -23.316406 9.632812 -21.785156 10.0625 -20.328125 C 10.5 -18.878906 10.867188 -17.679688 11.171875 -16.734375 C 11.484375 -15.785156 11.640625 -15.285156 11.640625 -15.234375 C 11.640625 -15.234375 11.929688 -15.664062 12.515625 -16.53125 C 13.109375 -17.40625 13.800781 -18.453125 14.59375 -19.671875 C 15.382812 -20.898438 16.148438 -22.0625 16.890625 -23.15625 C 17.628906 -24.257812 18.175781 -25.066406 18.53125 -25.578125 C 19.8125 -27.515625 20.296875 -29.054688 19.984375 -30.203125 C 19.679688 -31.359375 18.785156 -32.203125 17.296875 -32.734375 C 15.816406 -33.273438 14.007812 -33.617188 11.875 -33.765625 C 10.539062 -33.816406 9.644531 -33.472656 9.1875 -32.734375 C 8.726562 -31.992188 8.472656 -30.882812 8.421875 -29.40625 Z M 8.421875 -29.40625 "/></g></g></g></svg>