<svg xmlns="http://www.w3.org/2000/svg" xmlns:xlink="http://www.w3.org/1999/xlink" width="1080" zoomAndPan="magnify" viewBox="0 0 810 1012.49997" height="1350" preserveAspectRatio="xMidYMid meet" version="1.0"><defs><clipPath id="90b3854868"><path d="M 216 329.15625 L 603 329.15625 L 603 692 L 216 692 Z M 216 329.15625 " clip-rule="nonzero"/></clipPath><clipPath id="f8cadcd757"><path d="M 232.292969 387.5625 C 200.988281 443.40625 223.042969 497.761719 250.757812 526.609375 L 407.09375 689.011719 C 408.585938 690.5625 410.648438 691.433594 412.796875 691.425781 C 414.949219 691.414062 417 690.527344 418.480469 688.960938 L 571.445312 527.210938 C 597.226562 496.179688 607.105469 463.261719 601.617188 426.605469 C 594.039062 375.902344 555.449219 336.5625 507.777344 330.945312 C 478.539062 327.660156 450.296875 336.496094 428.253906 356.328125 C 422.320312 361.664062 417.015625 367.632812 412.394531 374.117188 C 406.910156 366.734375 400.480469 359.980469 393.210938 353.992188 C 367.859375 333.132812 335.59375 325.179688 304.601562 331.292969 C 275.246094 337.433594 248.894531 357.9375 232.292969 387.5625 Z M 232.292969 387.5625 " clip-rule="nonzero"/></clipPath><clipPath id="542a87292e"><path d="M 216.988281 329.15625 L 603.046875 329.15625 L 603.046875 692 L 216.988281 692 Z M 216.988281 329.15625 " clip-rule="nonzero"/></clipPath><clipPath id="c87502e6ca"><path d="M 232.292969 387.566406 C 200.988281 443.40625 223.042969 497.761719 250.757812 526.609375 L 407.09375 689.011719 C 408.585938 690.5625 410.644531 691.433594 412.796875 691.421875 C 414.945312 691.414062 417 690.523438 418.476562 688.960938 L 571.445312 527.210938 C 597.222656 496.175781 607.101562 463.261719 601.613281 426.605469 C 594.035156 375.902344 555.445312 336.5625 507.773438 330.945312 C 478.539062 327.660156 450.292969 336.496094 428.25 356.328125 C 422.316406 361.667969 417.015625 367.632812 412.394531 374.117188 C 406.910156 366.734375 400.480469 359.980469 393.207031 353.996094 C 367.859375 333.136719 335.59375 325.183594 304.597656 331.292969 C 275.246094 337.433594 248.894531 357.9375 232.292969 387.566406 Z M 232.292969 387.566406 " clip-rule="nonzero"/></clipPath></defs><g clip-path="url(#90b3854868)"><g clip-path="url(#f8cadcd757)"><path fill="#ffffff" d="M 216.988281 329.15625 L 602.789062 329.15625 L 602.789062 694.953125 L 216.988281 694.953125 Z M 216.988281 329.15625 " fill-opacity="1" fill-rule="nonzero"/></g></g><g clip-path="url(#542a87292e)"><g clip-path="url(#c87502e6ca)"><path stroke-linecap="butt" transform="matrix(0.74963, 0, 0, 0.74963, 216.986852, 329.158181)" fill="none" stroke-linejoin="miter" d="M 20.418235 77.916097 C -21.341963 152.405994 8.07881 224.915747 45.050186 263.398286 L 253.601055 480.041691 C 255.591621 482.110421 258.337768 483.272453 261.208978 483.25682 C 264.074976 483.246398 266.815912 482.058312 268.785634 479.97395 L 472.844702 264.200766 C 507.231469 222.80012 520.40985 178.893028 513.088527 129.993889 C 502.97937 62.356332 451.500833 9.877301 387.906939 2.384019 C 348.908521 -1.998353 311.228462 9.788716 281.823321 36.244484 C 273.907955 43.367792 266.836756 51.324845 260.672254 59.974949 C 253.356143 50.126337 244.778992 41.116681 235.076285 33.133573 C 201.262718 5.307337 158.220637 -5.302067 116.8721 2.847789 C 77.717354 11.039333 42.564584 38.391377 20.418235 77.916097 Z M 20.418235 77.916097 " stroke="#e61f93" stroke-width="28" stroke-opacity="1" stroke-miterlimit="4"/></g></g></svg>