<svg xmlns="http://www.w3.org/2000/svg" xmlns:xlink="http://www.w3.org/1999/xlink" width="1080" zoomAndPan="magnify" viewBox="0 0 810 1012.49997" height="1350" preserveAspectRatio="xMidYMid meet" version="1.0"><defs><g/></defs><g fill="#e61f93" fill-opacity="1"><g transform="translate(348.081146, 606.295557)"><g><path d="M 64.3125 -56.71875 L 58.5 -56.71875 C 56.488281 -56.71875 55.035156 -56.378906 54.140625 -55.703125 C 53.253906 -55.035156 52.734375 -53.734375 52.578125 -51.796875 C 52.210938 -47.628906 51.859375 -42.550781 51.515625 -36.5625 C 51.179688 -30.570312 51.015625 -25.640625 51.015625 -21.765625 L 51.90625 5.25 L 50.125 6.03125 L 37.953125 0.109375 C 38.398438 -5.765625 38.773438 -11.269531 39.078125 -16.40625 L 38.40625 -16.859375 C 36.769531 -15.585938 34.984375 -14.5625 33.046875 -13.78125 C 31.109375 -13 29.472656 -12.609375 28.140625 -12.609375 C 25.085938 -12.609375 21.847656 -13.648438 18.421875 -15.734375 C 14.992188 -17.828125 12.144531 -20.394531 9.875 -23.4375 C 7.601562 -26.488281 6.46875 -29.359375 6.46875 -32.046875 L 6.8125 -56.71875 L 0.21875 -56.71875 C -1.113281 -59.25 -2.039062 -61.664062 -2.5625 -63.96875 L -1.890625 -65.09375 L 61.734375 -65.09375 L 62.296875 -64.3125 L 64.75 -58.046875 Z M 39.625 -33.15625 C 39.625 -39.332031 39.328125 -47.1875 38.734375 -56.71875 L 24.5625 -56.71875 C 23.070312 -56.71875 22.046875 -56.472656 21.484375 -55.984375 C 20.929688 -55.503906 20.539062 -54.59375 20.3125 -53.25 C 19.875 -50.570312 19.351562 -46.03125 18.75 -39.625 C 18.15625 -33.226562 17.859375 -29.023438 17.859375 -27.015625 C 17.859375 -25.304688 18.304688 -23.984375 19.203125 -23.046875 C 20.097656 -22.117188 21.25 -21.65625 22.65625 -21.65625 C 24.738281 -21.65625 27.457031 -22.625 30.8125 -24.5625 C 34.164062 -26.5 37.101562 -28.84375 39.625 -31.59375 Z M 39.625 -33.15625 "/></g></g></g><g fill="#e61f93" fill-opacity="1"><g transform="translate(410.353048, 606.295557)"><g><path d="M 63.75 -56.71875 L 57.9375 -56.71875 C 55.925781 -56.71875 54.472656 -56.378906 53.578125 -55.703125 C 52.691406 -55.035156 52.175781 -53.734375 52.03125 -51.796875 C 51.65625 -47.628906 51.300781 -42.550781 50.96875 -36.5625 C 50.632812 -30.570312 50.46875 -25.640625 50.46875 -21.765625 L 51.359375 5.25 L 49.5625 6.03125 L 37.40625 0.109375 L 38.40625 -13.84375 L 38.734375 -19.3125 L 15.859375 -1.890625 L 8.375 -10.265625 L 8.375 -11.609375 L 37.171875 -31.8125 C 30.847656 -37.019531 26.234375 -39.625 23.328125 -39.625 C 21.835938 -39.625 20.347656 -39.125 18.859375 -38.125 C 17.378906 -37.125 14.40625 -34.835938 9.9375 -31.265625 L 2.125 -39.96875 L 2.125 -41.53125 C 8.375 -46.664062 13.914062 -49.234375 18.75 -49.234375 C 23.8125 -49.234375 30.550781 -46.03125 38.96875 -39.625 C 38.8125 -44.613281 38.550781 -50.3125 38.1875 -56.71875 L 0.21875 -56.71875 C -1.113281 -59.25 -2.039062 -61.664062 -2.5625 -63.96875 L -1.890625 -65.09375 L 60.953125 -65.09375 L 61.625 -64.3125 L 64.078125 -58.046875 Z M 63.75 -56.71875 "/></g></g></g></svg>