<svg xmlns="http://www.w3.org/2000/svg" xmlns:xlink="http://www.w3.org/1999/xlink" width="1080" zoomAndPan="magnify" viewBox="0 0 810 1012.49997" height="1350" preserveAspectRatio="xMidYMid meet" version="1.0"><defs><g/></defs><g fill="#e61f93" fill-opacity="1"><g transform="translate(325.01663, 467.031653)"><g><path d="M 47.109375 -22.890625 C 43.910156 -19.835938 40.632812 -17.398438 37.28125 -15.578125 C 33.9375 -13.753906 30.847656 -12.84375 28.015625 -12.84375 C 25.035156 -12.84375 21.867188 -13.882812 18.515625 -15.96875 C 15.171875 -18.050781 12.382812 -20.597656 10.15625 -23.609375 C 7.925781 -26.617188 6.8125 -29.425781 6.8125 -32.03125 L 7.25 -56.703125 L 0.21875 -56.703125 C -1.113281 -59.234375 -2.039062 -61.65625 -2.5625 -63.96875 L -1.890625 -65.078125 L 28.46875 -65.078125 L 29.015625 -64.296875 L 31.59375 -58.046875 L 31.140625 -56.703125 L 24.671875 -56.703125 C 23.179688 -56.703125 22.15625 -56.476562 21.59375 -56.03125 C 21.039062 -55.582031 20.648438 -54.65625 20.421875 -53.25 C 20.054688 -50.9375 19.554688 -46.523438 18.921875 -40.015625 C 18.285156 -33.503906 17.96875 -29.316406 17.96875 -27.453125 C 17.96875 -25.453125 18.453125 -23.984375 19.421875 -23.046875 C 20.390625 -22.117188 21.617188 -21.65625 23.109375 -21.65625 C 25.785156 -21.65625 28.960938 -23.066406 32.640625 -25.890625 C 36.328125 -28.722656 39.695312 -31.851562 42.75 -35.28125 Z M 47.109375 -22.890625 "/></g></g></g><g fill="#e61f93" fill-opacity="1"><g transform="translate(354.146246, 467.031653)"><g><path d="M 65.296875 -56.703125 L 59.5 -56.703125 C 57.488281 -56.703125 56.035156 -56.367188 55.140625 -55.703125 C 54.242188 -55.035156 53.722656 -53.734375 53.578125 -51.796875 C 53.203125 -47.628906 52.847656 -42.550781 52.515625 -36.5625 C 52.179688 -30.570312 52.015625 -25.640625 52.015625 -21.765625 L 52.90625 5.25 L 51.125 6.03125 L 38.953125 0.109375 C 39.472656 -5.992188 39.847656 -11.570312 40.078125 -16.625 C 37.023438 -14.46875 33.640625 -13.390625 29.921875 -13.390625 C 25.753906 -13.390625 21.695312 -14.523438 17.75 -16.796875 C 13.800781 -19.066406 10.46875 -22.117188 7.75 -25.953125 C 5.039062 -29.785156 3.425781 -33.894531 2.90625 -38.28125 C 7.664062 -41.78125 10.9375 -44.515625 12.71875 -46.484375 C 14.507812 -48.460938 15.40625 -50.378906 15.40625 -52.234375 C 15.40625 -53.648438 15.03125 -54.75 14.28125 -55.53125 C 13.539062 -56.3125 12.5 -56.703125 11.15625 -56.703125 L 0.21875 -56.703125 C -1.1875 -59.679688 -2.113281 -62.101562 -2.5625 -63.96875 L -1.890625 -65.078125 L 62.515625 -65.078125 L 63.1875 -64.296875 L 65.640625 -58.046875 Z M 40.625 -33.15625 C 40.625 -39.332031 40.328125 -47.179688 39.734375 -56.703125 L 21.328125 -56.703125 C 24.816406 -53.203125 26.5625 -49.628906 26.5625 -45.984375 C 26.5625 -40.179688 22.359375 -34.828125 13.953125 -29.921875 C 14.617188 -27.535156 15.769531 -25.691406 17.40625 -24.390625 C 19.050781 -23.085938 21.023438 -22.4375 23.328125 -22.4375 C 26.078125 -22.4375 29.050781 -23.421875 32.25 -25.390625 C 35.457031 -27.367188 38.25 -29.957031 40.625 -33.15625 Z M 40.625 -33.15625 "/></g></g></g><g fill="#e61f93" fill-opacity="1"><g transform="translate(417.316239, 467.031653)"><g><path d="M 35.390625 -56.703125 L 29.578125 -56.703125 C 27.566406 -56.703125 26.113281 -56.367188 25.21875 -55.703125 C 24.332031 -55.035156 23.816406 -53.734375 23.671875 -51.796875 C 23.296875 -47.628906 22.941406 -42.550781 22.609375 -36.5625 C 22.273438 -30.570312 22.109375 -25.640625 22.109375 -21.765625 L 23 5.25 L 21.203125 6.03125 L 9.046875 0.109375 C 10.160156 -14.546875 10.71875 -25.632812 10.71875 -33.15625 C 10.71875 -39.332031 10.421875 -47.179688 9.828125 -56.703125 L 0.21875 -56.703125 C -1.113281 -59.234375 -2.039062 -61.65625 -2.5625 -63.96875 L -1.890625 -65.078125 L 32.59375 -65.078125 L 33.265625 -64.296875 L 35.71875 -58.046875 Z M 35.390625 -56.703125 "/></g></g></g><g fill="#e61f93" fill-opacity="1"><g transform="translate(450.575337, 467.031653)"><g><path d="M 31.140625 -56.703125 C 33.597656 -52.390625 34.828125 -48.257812 34.828125 -44.3125 C 34.828125 -40.59375 33.632812 -36.925781 31.25 -33.3125 C 28.875 -29.707031 25.117188 -25.929688 19.984375 -21.984375 C 26.160156 -15.066406 32.820312 -9.003906 39.96875 -3.796875 L 39.96875 -1.671875 L 32.03125 4.796875 C 20.125 -7.035156 10.5625 -19.757812 3.34375 -33.375 L 6.03125 -38.171875 C 8.5625 -38.328125 10.347656 -38.40625 11.390625 -38.40625 C 13.472656 -38.40625 15.519531 -38.289062 17.53125 -38.0625 C 21.988281 -42.75 24.21875 -46.878906 24.21875 -50.453125 C 24.21875 -52.390625 23.734375 -53.914062 22.765625 -55.03125 C 21.804688 -56.144531 20.503906 -56.703125 18.859375 -56.703125 L 0.21875 -56.703125 C -1.113281 -59.609375 -2.039062 -62.03125 -2.5625 -63.96875 L -1.890625 -65.078125 L 43.640625 -65.078125 L 44.3125 -64.296875 L 46.875 -58.046875 L 46.4375 -56.703125 Z M 31.140625 -56.703125 "/></g></g></g></svg>