<svg xmlns="http://www.w3.org/2000/svg" xmlns:xlink="http://www.w3.org/1999/xlink" width="1080" zoomAndPan="magnify" viewBox="0 0 810 1012.49997" height="1350" preserveAspectRatio="xMidYMid meet" version="1.0"><defs><clipPath id="c2e0a3daab"><path d="M 91 258 L 693 258 L 693 789 L 91 789 Z M 91 258 " clip-rule="nonzero"/></clipPath><clipPath id="35f8b4503f"><path d="M 91.230469 711.734375 L 659.183594 220.179688 L 728.84375 300.667969 L 160.894531 792.222656 Z M 91.230469 711.734375 " clip-rule="nonzero"/></clipPath><clipPath id="d65ef56a38"><path d="M 91.230469 711.734375 L 659.183594 220.179688 L 728.84375 300.667969 L 160.894531 792.222656 Z M 91.230469 711.734375 " clip-rule="nonzero"/></clipPath></defs><g clip-path="url(#c2e0a3daab)"><g clip-path="url(#35f8b4503f)"><g clip-path="url(#d65ef56a38)"><path fill="#e61f93" d="M 692.535156 258.324219 L 577.625 290.957031 L 615.539062 315.460938 L 442.128906 465.542969 C 440.136719 463.238281 437.976562 461.074219 435.484375 459.195312 C 420.8125 448.566406 401.003906 451.304688 391.054688 465.101562 C 385.726562 472.59375 383.902344 480.800781 385.179688 490.929688 C 371.246094 487.144531 360.085938 489.890625 350.917969 499.265625 C 339.421875 510.945312 339.234375 530.695312 351.292969 543.296875 C 351.4375 543.460938 351.578125 543.628906 351.722656 543.792969 L 239.246094 641.140625 L 173.335938 640.863281 L 156.867188 655.117188 L 222.777344 655.390625 L 206.308594 669.644531 L 140.398438 669.371094 L 123.929688 683.621094 L 189.839844 683.898438 L 173.375 698.152344 L 107.792969 697.589844 L 91.324219 711.84375 L 168.03125 712.277344 L 157.457031 788.253906 L 173.925781 774.003906 L 183.109375 708.734375 L 199.578125 694.480469 L 190.394531 759.75 L 206.863281 745.496094 L 216.046875 680.226562 L 232.511719 665.976562 L 223.328125 731.242188 L 239.796875 716.992188 L 248.980469 651.722656 L 364.585938 551.667969 C 366.550781 552.273438 368.679688 552.734375 370.972656 553.054688 C 392.859375 555.714844 414.257812 554.476562 435.839844 552.789062 C 437.089844 552.570312 438.925781 550.695312 439.175781 549.324219 C 442.085938 534.710938 444.992188 520.097656 446.832031 505.253906 C 448.046875 497.003906 448.195312 488.523438 447.871094 480.164062 C 447.726562 479.996094 447.890625 479.855469 447.75 479.691406 L 624.617188 326.613281 L 643.757812 367.367188 Z M 620.5625 318.601562 L 620.867188 318.625 L 620.847656 318.929688 Z M 620.5625 318.601562 " fill-opacity="1" fill-rule="nonzero"/></g></g></g></svg>