<svg xmlns="http://www.w3.org/2000/svg" xmlns:xlink="http://www.w3.org/1999/xlink" width="1080" zoomAndPan="magnify" viewBox="0 0 810 1012.49997" height="1350" preserveAspectRatio="xMidYMid meet" version="1.0"><defs><g/><clipPath id="a118182b10"><path d="M 91 258 L 693 258 L 693 789 L 91 789 Z M 91 258 " clip-rule="nonzero"/></clipPath><clipPath id="e7f8e5fb65"><path d="M 91.230469 711.734375 L 659.183594 220.179688 L 728.84375 300.667969 L 160.894531 792.222656 Z M 91.230469 711.734375 " clip-rule="nonzero"/></clipPath><clipPath id="b99f2e3939"><path d="M 91.230469 711.734375 L 659.183594 220.179688 L 728.84375 300.667969 L 160.894531 792.222656 Z M 91.230469 711.734375 " clip-rule="nonzero"/></clipPath><clipPath id="d02e124da9"><path d="M 216 329.15625 L 603 329.15625 L 603 692 L 216 692 Z M 216 329.15625 " clip-rule="nonzero"/></clipPath><clipPath id="6a56146f37"><path d="M 232.292969 387.5625 C 200.988281 443.40625 223.042969 497.761719 250.757812 526.609375 L 407.09375 689.011719 C 408.585938 690.5625 410.648438 691.433594 412.796875 691.425781 C 414.949219 691.414062 417 690.527344 418.480469 688.960938 L 571.445312 527.210938 C 597.226562 496.179688 607.105469 463.261719 601.617188 426.605469 C 594.039062 375.902344 555.449219 336.5625 507.777344 330.945312 C 478.539062 327.660156 450.296875 336.496094 428.253906 356.328125 C 422.320312 361.664062 417.015625 367.632812 412.394531 374.117188 C 406.910156 366.734375 400.480469 359.980469 393.210938 353.992188 C 367.859375 333.132812 335.59375 325.179688 304.601562 331.292969 C 275.246094 337.433594 248.894531 357.9375 232.292969 387.5625 Z M 232.292969 387.5625 " clip-rule="nonzero"/></clipPath><clipPath id="392970afdc"><path d="M 216.988281 329.15625 L 603.046875 329.15625 L 603.046875 692 L 216.988281 692 Z M 216.988281 329.15625 " clip-rule="nonzero"/></clipPath><clipPath id="32c4dfb860"><path d="M 232.292969 387.566406 C 200.988281 443.40625 223.042969 497.761719 250.757812 526.609375 L 407.09375 689.011719 C 408.585938 690.5625 410.644531 691.433594 412.796875 691.421875 C 414.945312 691.414062 417 690.523438 418.476562 688.960938 L 571.445312 527.210938 C 597.222656 496.175781 607.101562 463.261719 601.613281 426.605469 C 594.035156 375.902344 555.445312 336.5625 507.773438 330.945312 C 478.539062 327.660156 450.292969 336.496094 428.25 356.328125 C 422.316406 361.667969 417.015625 367.632812 412.394531 374.117188 C 406.910156 366.734375 400.480469 359.980469 393.207031 353.996094 C 367.859375 333.136719 335.59375 325.183594 304.597656 331.292969 C 275.246094 337.433594 248.894531 357.9375 232.292969 387.566406 Z M 232.292969 387.566406 " clip-rule="nonzero"/></clipPath></defs><g clip-path="url(#a118182b10)"><g clip-path="url(#e7f8e5fb65)"><g clip-path="url(#b99f2e3939)"><path fill="#e61f93" d="M 692.535156 258.324219 L 577.625 290.957031 L 615.539062 315.460938 L 442.128906 465.542969 C 440.136719 463.238281 437.976562 461.074219 435.484375 459.195312 C 420.8125 448.566406 401.003906 451.304688 391.054688 465.101562 C 385.726562 472.59375 383.902344 480.800781 385.179688 490.929688 C 371.246094 487.144531 360.085938 489.890625 350.917969 499.265625 C 339.421875 510.945312 339.234375 530.695312 351.292969 543.296875 C 351.4375 543.460938 351.578125 543.628906 351.722656 543.792969 L 239.246094 641.140625 L 173.335938 640.863281 L 156.867188 655.117188 L 222.777344 655.390625 L 206.308594 669.644531 L 140.398438 669.371094 L 123.929688 683.621094 L 189.839844 683.898438 L 173.375 698.152344 L 107.792969 697.589844 L 91.324219 711.84375 L 168.03125 712.277344 L 157.457031 788.253906 L 173.925781 774.003906 L 183.109375 708.734375 L 199.578125 694.480469 L 190.394531 759.75 L 206.863281 745.496094 L 216.046875 680.226562 L 232.511719 665.976562 L 223.328125 731.242188 L 239.796875 716.992188 L 248.980469 651.722656 L 364.585938 551.667969 C 366.550781 552.273438 368.679688 552.734375 370.972656 553.054688 C 392.859375 555.714844 414.257812 554.476562 435.839844 552.789062 C 437.089844 552.570312 438.925781 550.695312 439.175781 549.324219 C 442.085938 534.710938 444.992188 520.097656 446.832031 505.253906 C 448.046875 497.003906 448.195312 488.523438 447.871094 480.164062 C 447.726562 479.996094 447.890625 479.855469 447.75 479.691406 L 624.617188 326.613281 L 643.757812 367.367188 Z M 620.5625 318.601562 L 620.867188 318.625 L 620.847656 318.929688 Z M 620.5625 318.601562 " fill-opacity="1" fill-rule="nonzero"/></g></g></g><g clip-path="url(#d02e124da9)"><g clip-path="url(#6a56146f37)"><path fill="#ffffff" d="M 216.988281 329.15625 L 602.789062 329.15625 L 602.789062 694.953125 L 216.988281 694.953125 Z M 216.988281 329.15625 " fill-opacity="1" fill-rule="nonzero"/></g></g><g clip-path="url(#392970afdc)"><g clip-path="url(#32c4dfb860)"><path stroke-linecap="butt" transform="matrix(0.74963, 0, 0, 0.74963, 216.986852, 329.158181)" fill="none" stroke-linejoin="miter" d="M 20.418235 77.916097 C -21.341963 152.405994 8.07881 224.915747 45.050186 263.398286 L 253.601055 480.041691 C 255.591621 482.110421 258.337768 483.272453 261.208978 483.25682 C 264.074976 483.246398 266.815912 482.058312 268.785634 479.97395 L 472.844702 264.200766 C 507.231469 222.80012 520.40985 178.893028 513.088527 129.993889 C 502.97937 62.356332 451.500833 9.877301 387.906939 2.384019 C 348.908521 -1.998353 311.228462 9.788716 281.823321 36.244484 C 273.907955 43.367792 266.836756 51.324845 260.672254 59.974949 C 253.356143 50.126337 244.778992 41.116681 235.076285 33.133573 C 201.262718 5.307337 158.220637 -5.302067 116.8721 2.847789 C 77.717354 11.039333 42.564584 38.391377 20.418235 77.916097 Z M 20.418235 77.916097 " stroke="#e61f93" stroke-width="28" stroke-opacity="1" stroke-miterlimit="4"/></g></g><g fill="#e61f93" fill-opacity="1"><g transform="translate(371.810426, 532.181906)"><g><path d="M 23.046875 -31.703125 C 23.046875 -31.703125 23.378906 -31.125 24.046875 -29.96875 C 24.710938 -28.820312 25.617188 -27.304688 26.765625 -25.421875 C 27.910156 -23.535156 29.25 -21.429688 30.78125 -19.109375 C 32.3125 -16.785156 33.945312 -14.445312 35.6875 -12.09375 C 37.425781 -9.75 39.210938 -7.539062 41.046875 -5.46875 C 42.878906 -3.40625 44.664062 -1.6875 46.40625 -0.3125 C 46.40625 -0.3125 45.894531 -0.234375 44.875 -0.078125 C 43.851562 0.078125 42.578125 0.15625 41.046875 0.15625 C 39.816406 0.15625 38.515625 0.0546875 37.140625 -0.140625 C 35.765625 -0.347656 34.460938 -0.734375 33.234375 -1.296875 C 32.367188 -1.753906 31.21875 -2.773438 29.78125 -4.359375 C 28.351562 -5.941406 26.796875 -7.816406 25.109375 -9.984375 C 23.429688 -12.160156 21.800781 -14.367188 20.21875 -16.609375 C 18.632812 -18.859375 17.226562 -20.890625 16 -22.703125 C 14.78125 -24.515625 13.941406 -25.804688 13.484375 -26.578125 L 13.484375 -8.890625 C 13.484375 -8.890625 13.519531 -8.46875 13.59375 -7.625 C 13.664062 -6.78125 13.894531 -5.691406 14.28125 -4.359375 C 14.664062 -3.035156 15.316406 -1.660156 16.234375 -0.234375 L 1.15625 -0.234375 C 2.125 -1.304688 2.796875 -2.46875 3.171875 -3.71875 C 3.554688 -4.96875 3.800781 -6.085938 3.90625 -7.078125 C 4.007812 -8.078125 4.0625 -8.679688 4.0625 -8.890625 L 4.0625 -44.875 C 4.0625 -45.125 4.007812 -45.734375 3.90625 -46.703125 C 3.800781 -47.679688 3.546875 -48.796875 3.140625 -50.046875 C 2.734375 -51.296875 2.070312 -52.457031 1.15625 -53.53125 L 16.234375 -53.53125 C 15.316406 -52.101562 14.664062 -50.710938 14.28125 -49.359375 C 13.894531 -48.003906 13.664062 -46.90625 13.59375 -46.0625 C 13.519531 -45.21875 13.484375 -44.796875 13.484375 -44.796875 L 13.484375 -29.640625 C 13.578125 -29.785156 14.300781 -30.519531 15.65625 -31.84375 C 17.007812 -33.175781 18.769531 -34.988281 20.9375 -37.28125 C 23.113281 -39.582031 25.503906 -42.289062 28.109375 -45.40625 C 28.816406 -46.175781 29.171875 -46.914062 29.171875 -47.625 C 28.765625 -49.769531 27.847656 -51.738281 26.421875 -53.53125 L 41.734375 -53.453125 C 39.285156 -50.898438 37.164062 -48.640625 35.375 -46.671875 C 33.59375 -44.703125 32.023438 -42.914062 30.671875 -41.3125 C 29.316406 -39.707031 28.039062 -38.140625 26.84375 -36.609375 C 25.644531 -35.078125 24.378906 -33.441406 23.046875 -31.703125 Z M 23.046875 -31.703125 "/></g></g></g><g fill="#e61f93" fill-opacity="1"><g transform="translate(417.446931, 532.181906)"><g><path d="M 23.28125 -4.515625 C 24.457031 -4.515625 25.65625 -4.601562 26.875 -4.78125 C 28.101562 -4.957031 29.28125 -5.148438 30.40625 -5.359375 C 30.25 -5.148438 29.890625 -4.710938 29.328125 -4.046875 C 28.765625 -3.390625 27.984375 -2.664062 26.984375 -1.875 C 25.992188 -1.082031 24.71875 -0.394531 23.15625 0.1875 C 21.601562 0.78125 19.753906 1.078125 17.609375 1.078125 C 12.765625 1.078125 8.875 -0.59375 5.9375 -3.9375 C 3 -7.28125 1.53125 -12.53125 1.53125 -19.6875 C 1.53125 -23.457031 2.101562 -26.8125 3.25 -29.75 C 4.40625 -32.6875 6.164062 -34.992188 8.53125 -36.671875 C 10.90625 -38.359375 13.957031 -39.203125 17.6875 -39.203125 C 19.882812 -39.203125 21.75 -38.921875 23.28125 -38.359375 C 24.8125 -37.796875 26.046875 -37.144531 26.984375 -36.40625 C 27.929688 -35.664062 28.632812 -35.015625 29.09375 -34.453125 C 29.550781 -33.898438 29.78125 -33.625 29.78125 -33.625 L 12.5625 -12.328125 C 12.5625 -12.328125 12.570312 -12.222656 12.59375 -12.015625 C 12.625 -11.816406 12.738281 -11.515625 12.9375 -11.109375 C 13.851562 -9.066406 14.847656 -7.582031 15.921875 -6.65625 C 16.992188 -5.738281 18.144531 -5.148438 19.375 -4.890625 C 20.601562 -4.640625 21.90625 -4.515625 23.28125 -4.515625 Z M 8.421875 -29.40625 C 8.421875 -28.03125 8.585938 -26.535156 8.921875 -24.921875 C 9.253906 -23.316406 9.632812 -21.785156 10.0625 -20.328125 C 10.5 -18.878906 10.867188 -17.679688 11.171875 -16.734375 C 11.484375 -15.785156 11.640625 -15.285156 11.640625 -15.234375 C 11.640625 -15.234375 11.929688 -15.664062 12.515625 -16.53125 C 13.109375 -17.40625 13.800781 -18.453125 14.59375 -19.671875 C 15.382812 -20.898438 16.148438 -22.0625 16.890625 -23.15625 C 17.628906 -24.257812 18.175781 -25.066406 18.53125 -25.578125 C 19.8125 -27.515625 20.296875 -29.054688 19.984375 -30.203125 C 19.679688 -31.359375 18.785156 -32.203125 17.296875 -32.734375 C 15.816406 -33.273438 14.007812 -33.617188 11.875 -33.765625 C 10.539062 -33.816406 9.644531 -33.472656 9.1875 -32.734375 C 8.726562 -31.992188 8.472656 -30.882812 8.421875 -29.40625 Z M 8.421875 -29.40625 "/></g></g></g><g fill="#e61f93" fill-opacity="1"><g transform="translate(348.081146, 606.295485)"><g><path d="M 64.3125 -56.71875 L 58.5 -56.71875 C 56.488281 -56.71875 55.035156 -56.378906 54.140625 -55.703125 C 53.253906 -55.035156 52.734375 -53.734375 52.578125 -51.796875 C 52.210938 -47.628906 51.859375 -42.550781 51.515625 -36.5625 C 51.179688 -30.570312 51.015625 -25.640625 51.015625 -21.765625 L 51.90625 5.25 L 50.125 6.03125 L 37.953125 0.109375 C 38.398438 -5.765625 38.773438 -11.269531 39.078125 -16.40625 L 38.40625 -16.859375 C 36.769531 -15.585938 34.984375 -14.5625 33.046875 -13.78125 C 31.109375 -13 29.472656 -12.609375 28.140625 -12.609375 C 25.085938 -12.609375 21.847656 -13.648438 18.421875 -15.734375 C 14.992188 -17.828125 12.144531 -20.394531 9.875 -23.4375 C 7.601562 -26.488281 6.46875 -29.359375 6.46875 -32.046875 L 6.8125 -56.71875 L 0.21875 -56.71875 C -1.113281 -59.25 -2.039062 -61.664062 -2.5625 -63.96875 L -1.890625 -65.09375 L 61.734375 -65.09375 L 62.296875 -64.3125 L 64.75 -58.046875 Z M 39.625 -33.15625 C 39.625 -39.332031 39.328125 -47.1875 38.734375 -56.71875 L 24.5625 -56.71875 C 23.070312 -56.71875 22.046875 -56.472656 21.484375 -55.984375 C 20.929688 -55.503906 20.539062 -54.59375 20.3125 -53.25 C 19.875 -50.570312 19.351562 -46.03125 18.75 -39.625 C 18.15625 -33.226562 17.859375 -29.023438 17.859375 -27.015625 C 17.859375 -25.304688 18.304688 -23.984375 19.203125 -23.046875 C 20.097656 -22.117188 21.25 -21.65625 22.65625 -21.65625 C 24.738281 -21.65625 27.457031 -22.625 30.8125 -24.5625 C 34.164062 -26.5 37.101562 -28.84375 39.625 -31.59375 Z M 39.625 -33.15625 "/></g></g></g><g fill="#e61f93" fill-opacity="1"><g transform="translate(410.353048, 606.295485)"><g><path d="M 63.75 -56.71875 L 57.9375 -56.71875 C 55.925781 -56.71875 54.472656 -56.378906 53.578125 -55.703125 C 52.691406 -55.035156 52.175781 -53.734375 52.03125 -51.796875 C 51.65625 -47.628906 51.300781 -42.550781 50.96875 -36.5625 C 50.632812 -30.570312 50.46875 -25.640625 50.46875 -21.765625 L 51.359375 5.25 L 49.5625 6.03125 L 37.40625 0.109375 L 38.40625 -13.84375 L 38.734375 -19.3125 L 15.859375 -1.890625 L 8.375 -10.265625 L 8.375 -11.609375 L 37.171875 -31.8125 C 30.847656 -37.019531 26.234375 -39.625 23.328125 -39.625 C 21.835938 -39.625 20.347656 -39.125 18.859375 -38.125 C 17.378906 -37.125 14.40625 -34.835938 9.9375 -31.265625 L 2.125 -39.96875 L 2.125 -41.53125 C 8.375 -46.664062 13.914062 -49.234375 18.75 -49.234375 C 23.8125 -49.234375 30.550781 -46.03125 38.96875 -39.625 C 38.8125 -44.613281 38.550781 -50.3125 38.1875 -56.71875 L 0.21875 -56.71875 C -1.113281 -59.25 -2.039062 -61.664062 -2.5625 -63.96875 L -1.890625 -65.09375 L 60.953125 -65.09375 L 61.625 -64.3125 L 64.078125 -58.046875 Z M 63.75 -56.71875 "/></g></g></g><g fill="#e61f93" fill-opacity="1"><g transform="translate(325.01663, 467.031535)"><g><path d="M 47.109375 -22.890625 C 43.910156 -19.835938 40.632812 -17.398438 37.28125 -15.578125 C 33.9375 -13.753906 30.847656 -12.84375 28.015625 -12.84375 C 25.035156 -12.84375 21.867188 -13.882812 18.515625 -15.96875 C 15.171875 -18.050781 12.382812 -20.597656 10.15625 -23.609375 C 7.925781 -26.617188 6.8125 -29.425781 6.8125 -32.03125 L 7.25 -56.703125 L 0.21875 -56.703125 C -1.113281 -59.234375 -2.039062 -61.65625 -2.5625 -63.96875 L -1.890625 -65.078125 L 28.46875 -65.078125 L 29.015625 -64.296875 L 31.59375 -58.046875 L 31.140625 -56.703125 L 24.671875 -56.703125 C 23.179688 -56.703125 22.15625 -56.476562 21.59375 -56.03125 C 21.039062 -55.582031 20.648438 -54.65625 20.421875 -53.25 C 20.054688 -50.9375 19.554688 -46.523438 18.921875 -40.015625 C 18.285156 -33.503906 17.96875 -29.316406 17.96875 -27.453125 C 17.96875 -25.453125 18.453125 -23.984375 19.421875 -23.046875 C 20.390625 -22.117188 21.617188 -21.65625 23.109375 -21.65625 C 25.785156 -21.65625 28.960938 -23.066406 32.640625 -25.890625 C 36.328125 -28.722656 39.695312 -31.851562 42.75 -35.28125 Z M 47.109375 -22.890625 "/></g></g></g><g fill="#e61f93" fill-opacity="1"><g transform="translate(354.146246, 467.031535)"><g><path d="M 65.296875 -56.703125 L 59.5 -56.703125 C 57.488281 -56.703125 56.035156 -56.367188 55.140625 -55.703125 C 54.242188 -55.035156 53.722656 -53.734375 53.578125 -51.796875 C 53.203125 -47.628906 52.847656 -42.550781 52.515625 -36.5625 C 52.179688 -30.570312 52.015625 -25.640625 52.015625 -21.765625 L 52.90625 5.25 L 51.125 6.03125 L 38.953125 0.109375 C 39.472656 -5.992188 39.847656 -11.570312 40.078125 -16.625 C 37.023438 -14.46875 33.640625 -13.390625 29.921875 -13.390625 C 25.753906 -13.390625 21.695312 -14.523438 17.75 -16.796875 C 13.800781 -19.066406 10.46875 -22.117188 7.75 -25.953125 C 5.039062 -29.785156 3.425781 -33.894531 2.90625 -38.28125 C 7.664062 -41.78125 10.9375 -44.515625 12.71875 -46.484375 C 14.507812 -48.460938 15.40625 -50.378906 15.40625 -52.234375 C 15.40625 -53.648438 15.03125 -54.75 14.28125 -55.53125 C 13.539062 -56.3125 12.5 -56.703125 11.15625 -56.703125 L 0.21875 -56.703125 C -1.1875 -59.679688 -2.113281 -62.101562 -2.5625 -63.96875 L -1.890625 -65.078125 L 62.515625 -65.078125 L 63.1875 -64.296875 L 65.640625 -58.046875 Z M 40.625 -33.15625 C 40.625 -39.332031 40.328125 -47.179688 39.734375 -56.703125 L 21.328125 -56.703125 C 24.816406 -53.203125 26.5625 -49.628906 26.5625 -45.984375 C 26.5625 -40.179688 22.359375 -34.828125 13.953125 -29.921875 C 14.617188 -27.535156 15.769531 -25.691406 17.40625 -24.390625 C 19.050781 -23.085938 21.023438 -22.4375 23.328125 -22.4375 C 26.078125 -22.4375 29.050781 -23.421875 32.25 -25.390625 C 35.457031 -27.367188 38.25 -29.957031 40.625 -33.15625 Z M 40.625 -33.15625 "/></g></g></g><g fill="#e61f93" fill-opacity="1"><g transform="translate(417.316239, 467.031535)"><g><path d="M 35.390625 -56.703125 L 29.578125 -56.703125 C 27.566406 -56.703125 26.113281 -56.367188 25.21875 -55.703125 C 24.332031 -55.035156 23.816406 -53.734375 23.671875 -51.796875 C 23.296875 -47.628906 22.941406 -42.550781 22.609375 -36.5625 C 22.273438 -30.570312 22.109375 -25.640625 22.109375 -21.765625 L 23 5.25 L 21.203125 6.03125 L 9.046875 0.109375 C 10.160156 -14.546875 10.71875 -25.632812 10.71875 -33.15625 C 10.71875 -39.332031 10.421875 -47.179688 9.828125 -56.703125 L 0.21875 -56.703125 C -1.113281 -59.234375 -2.039062 -61.65625 -2.5625 -63.96875 L -1.890625 -65.078125 L 32.59375 -65.078125 L 33.265625 -64.296875 L 35.71875 -58.046875 Z M 35.390625 -56.703125 "/></g></g></g><g fill="#e61f93" fill-opacity="1"><g transform="translate(450.575337, 467.031535)"><g><path d="M 31.140625 -56.703125 C 33.597656 -52.390625 34.828125 -48.257812 34.828125 -44.3125 C 34.828125 -40.59375 33.632812 -36.925781 31.25 -33.3125 C 28.875 -29.707031 25.117188 -25.929688 19.984375 -21.984375 C 26.160156 -15.066406 32.820312 -9.003906 39.96875 -3.796875 L 39.96875 -1.671875 L 32.03125 4.796875 C 20.125 -7.035156 10.5625 -19.757812 3.34375 -33.375 L 6.03125 -38.171875 C 8.5625 -38.328125 10.347656 -38.40625 11.390625 -38.40625 C 13.472656 -38.40625 15.519531 -38.289062 17.53125 -38.0625 C 21.988281 -42.75 24.21875 -46.878906 24.21875 -50.453125 C 24.21875 -52.390625 23.734375 -53.914062 22.765625 -55.03125 C 21.804688 -56.144531 20.503906 -56.703125 18.859375 -56.703125 L 0.21875 -56.703125 C -1.113281 -59.609375 -2.039062 -62.03125 -2.5625 -63.96875 L -1.890625 -65.078125 L 43.640625 -65.078125 L 44.3125 -64.296875 L 46.875 -58.046875 L 46.4375 -56.703125 Z M 31.140625 -56.703125 "/></g></g></g></svg>