<svg xmlns="http://www.w3.org/2000/svg" xmlns:xlink="http://www.w3.org/1999/xlink" width="1080" zoomAndPan="magnify" viewBox="0 0 810 1012.49997" height="1350" preserveAspectRatio="xMidYMid meet" version="1.0"><defs><g/></defs><g fill="#002f62" fill-opacity="1"><g transform="translate(375.38296, 526.162129)"><g><path d="M 32.359375 -44.5 C 32.359375 -44.5 32.820312 -43.691406 33.75 -42.078125 C 34.675781 -40.460938 35.945312 -38.328125 37.5625 -35.671875 C 39.175781 -33.023438 41.054688 -30.070312 43.203125 -26.8125 C 45.359375 -23.550781 47.648438 -20.269531 50.078125 -16.96875 C 52.515625 -13.675781 55.023438 -10.578125 57.609375 -7.671875 C 60.191406 -4.773438 62.703125 -2.363281 65.140625 -0.4375 C 65.140625 -0.4375 64.421875 -0.328125 62.984375 -0.109375 C 61.554688 0.109375 59.765625 0.21875 57.609375 0.21875 C 55.890625 0.21875 54.0625 0.078125 52.125 -0.203125 C 50.195312 -0.492188 48.367188 -1.035156 46.640625 -1.828125 C 45.429688 -2.472656 43.820312 -3.90625 41.8125 -6.125 C 39.800781 -8.34375 37.613281 -10.972656 35.25 -14.015625 C 32.882812 -17.066406 30.59375 -20.164062 28.375 -23.3125 C 26.15625 -26.46875 24.1875 -29.316406 22.46875 -31.859375 C 20.75 -34.410156 19.566406 -36.222656 18.921875 -37.296875 L 18.921875 -12.46875 C 18.921875 -12.46875 18.972656 -11.875 19.078125 -10.6875 C 19.179688 -9.507812 19.503906 -7.988281 20.046875 -6.125 C 20.585938 -4.257812 21.5 -2.328125 22.78125 -0.328125 L 1.609375 -0.328125 C 2.972656 -1.828125 3.921875 -3.453125 4.453125 -5.203125 C 4.992188 -6.960938 5.335938 -8.539062 5.484375 -9.9375 C 5.628906 -11.332031 5.703125 -12.175781 5.703125 -12.46875 L 5.703125 -62.984375 C 5.703125 -63.335938 5.628906 -64.195312 5.484375 -65.5625 C 5.335938 -66.925781 4.976562 -68.484375 4.40625 -70.234375 C 3.832031 -71.992188 2.898438 -73.625 1.609375 -75.125 L 22.78125 -75.125 C 21.5 -73.125 20.585938 -71.171875 20.046875 -69.265625 C 19.503906 -67.367188 19.179688 -65.828125 19.078125 -64.640625 C 18.972656 -63.460938 18.921875 -62.875 18.921875 -62.875 L 18.921875 -41.59375 C 19.054688 -41.8125 20.070312 -42.851562 21.96875 -44.71875 C 23.875 -46.582031 26.347656 -49.125 29.390625 -52.34375 C 32.441406 -55.570312 35.796875 -59.367188 39.453125 -63.734375 C 40.453125 -64.804688 40.953125 -65.847656 40.953125 -66.859375 C 40.378906 -69.867188 39.085938 -72.625 37.078125 -75.125 L 58.578125 -75.03125 C 55.140625 -71.445312 52.164062 -68.273438 49.65625 -65.515625 C 47.144531 -62.753906 44.941406 -60.242188 43.046875 -57.984375 C 41.148438 -55.734375 39.359375 -53.53125 37.671875 -51.375 C 35.984375 -49.226562 34.210938 -46.9375 32.359375 -44.5 Z M 32.359375 -44.5 "/></g></g></g><g fill="#002f62" fill-opacity="1"><g transform="translate(439.439908, 526.162129)"><g><path d="M 32.671875 -6.34375 C 34.316406 -6.34375 36 -6.46875 37.71875 -6.71875 C 39.445312 -6.96875 41.097656 -7.238281 42.671875 -7.53125 C 42.453125 -7.238281 41.945312 -6.625 41.15625 -5.6875 C 40.375 -4.757812 39.285156 -3.738281 37.890625 -2.625 C 36.492188 -1.519531 34.703125 -0.554688 32.515625 0.265625 C 30.328125 1.085938 27.726562 1.5 24.71875 1.5 C 17.914062 1.5 12.453125 -0.84375 8.328125 -5.53125 C 4.210938 -10.226562 2.15625 -17.59375 2.15625 -27.625 C 2.15625 -32.925781 2.957031 -37.632812 4.5625 -41.75 C 6.175781 -45.875 8.648438 -49.117188 11.984375 -51.484375 C 15.316406 -53.847656 19.597656 -55.03125 24.828125 -55.03125 C 27.910156 -55.03125 30.523438 -54.632812 32.671875 -53.84375 C 34.828125 -53.0625 36.566406 -52.148438 37.890625 -51.109375 C 39.210938 -50.066406 40.195312 -49.148438 40.84375 -48.359375 C 41.488281 -47.578125 41.8125 -47.1875 41.8125 -47.1875 L 17.625 -17.3125 C 17.625 -17.3125 17.640625 -17.164062 17.671875 -16.875 C 17.710938 -16.582031 17.878906 -16.148438 18.171875 -15.578125 C 19.453125 -12.710938 20.84375 -10.632812 22.34375 -9.34375 C 23.851562 -8.0625 25.46875 -7.238281 27.1875 -6.875 C 28.90625 -6.519531 30.734375 -6.34375 32.671875 -6.34375 Z M 11.828125 -41.28125 C 11.828125 -39.34375 12.054688 -37.242188 12.515625 -34.984375 C 12.984375 -32.722656 13.519531 -30.570312 14.125 -28.53125 C 14.738281 -26.488281 15.257812 -24.804688 15.6875 -23.484375 C 16.125 -22.160156 16.34375 -21.460938 16.34375 -21.390625 C 16.34375 -21.390625 16.753906 -22 17.578125 -23.21875 C 18.398438 -24.4375 19.363281 -25.90625 20.46875 -27.625 C 21.582031 -29.34375 22.660156 -30.972656 23.703125 -32.515625 C 24.742188 -34.054688 25.515625 -35.1875 26.015625 -35.90625 C 27.804688 -38.625 28.484375 -40.789062 28.046875 -42.40625 C 27.617188 -44.019531 26.363281 -45.203125 24.28125 -45.953125 C 22.207031 -46.703125 19.664062 -47.1875 16.65625 -47.40625 C 14.789062 -47.476562 13.535156 -46.992188 12.890625 -45.953125 C 12.253906 -44.910156 11.898438 -43.351562 11.828125 -41.28125 Z M 11.828125 -41.28125 "/></g></g></g><g fill="#e61f93" fill-opacity="1"><g transform="translate(484.358426, 521.906348)"><g><path d="M 75.609375 -66.6875 L 68.78125 -66.6875 C 66.414062 -66.6875 64.707031 -66.289062 63.65625 -65.5 C 62.613281 -64.707031 62.003906 -63.175781 61.828125 -60.90625 C 61.390625 -56.007812 60.972656 -50.035156 60.578125 -42.984375 C 60.179688 -35.941406 59.984375 -30.144531 59.984375 -25.59375 L 61.03125 6.171875 L 58.9375 7.09375 L 44.625 0.125 C 45.15625 -6.78125 45.59375 -13.253906 45.9375 -19.296875 L 45.15625 -19.828125 C 43.226562 -18.335938 41.125 -17.128906 38.84375 -16.203125 C 36.570312 -15.285156 34.648438 -14.828125 33.078125 -14.828125 C 29.492188 -14.828125 25.6875 -16.050781 21.65625 -18.5 C 17.632812 -20.957031 14.285156 -23.976562 11.609375 -27.5625 C 8.941406 -31.15625 7.609375 -34.523438 7.609375 -37.671875 L 8 -66.6875 L 0.265625 -66.6875 C -1.304688 -69.65625 -2.398438 -72.5 -3.015625 -75.21875 L -2.234375 -76.53125 L 72.59375 -76.53125 L 73.25 -75.609375 L 76.140625 -68.265625 Z M 46.59375 -38.984375 C 46.59375 -46.242188 46.242188 -55.476562 45.546875 -66.6875 L 28.875 -66.6875 C 27.125 -66.6875 25.921875 -66.398438 25.265625 -65.828125 C 24.609375 -65.253906 24.148438 -64.179688 23.890625 -62.609375 C 23.367188 -59.460938 22.753906 -54.125 22.046875 -46.59375 C 21.347656 -39.070312 21 -34.128906 21 -31.765625 C 21 -29.753906 21.523438 -28.203125 22.578125 -27.109375 C 23.628906 -26.015625 24.984375 -25.46875 26.640625 -25.46875 C 29.097656 -25.46875 32.296875 -26.601562 36.234375 -28.875 C 40.171875 -31.15625 43.625 -33.910156 46.59375 -37.140625 Z M 46.59375 -38.984375 "/></g></g></g><g fill="#e61f93" fill-opacity="1"><g transform="translate(557.605411, 521.906348)"><g><path d="M 74.953125 -66.6875 L 68.125 -66.6875 C 65.757812 -66.6875 64.050781 -66.289062 63 -65.5 C 61.957031 -64.707031 61.347656 -63.175781 61.171875 -60.90625 C 60.734375 -56.007812 60.316406 -50.035156 59.921875 -42.984375 C 59.523438 -35.941406 59.328125 -30.144531 59.328125 -25.59375 L 60.375 6.171875 L 58.28125 7.09375 L 43.96875 0.125 L 45.15625 -16.28125 L 45.546875 -22.703125 L 18.640625 -2.234375 L 9.84375 -12.078125 L 9.84375 -13.65625 L 43.71875 -37.40625 C 36.269531 -43.53125 30.84375 -46.59375 27.4375 -46.59375 C 25.6875 -46.59375 23.9375 -46.003906 22.1875 -44.828125 C 20.4375 -43.648438 16.9375 -40.957031 11.6875 -36.75 L 2.5 -47 L 2.5 -48.828125 C 9.84375 -54.867188 16.359375 -57.890625 22.046875 -57.890625 C 28.003906 -57.890625 35.925781 -54.125 45.8125 -46.59375 C 45.632812 -52.457031 45.328125 -59.15625 44.890625 -66.6875 L 0.265625 -66.6875 C -1.304688 -69.65625 -2.398438 -72.5 -3.015625 -75.21875 L -2.234375 -76.53125 L 71.671875 -76.53125 L 72.453125 -75.609375 L 75.34375 -68.265625 Z M 74.953125 -66.6875 "/></g></g></g><g fill="#e61f93" fill-opacity="1"><g transform="translate(170.308619, 521.906358)"><g><path d="M 53.84375 -26.15625 C 50.1875 -22.664062 46.441406 -19.878906 42.609375 -17.796875 C 38.785156 -15.710938 35.257812 -14.671875 32.03125 -14.671875 C 28.625 -14.671875 25.003906 -15.859375 21.171875 -18.234375 C 17.347656 -20.617188 14.160156 -23.535156 11.609375 -26.984375 C 9.054688 -30.429688 7.78125 -33.644531 7.78125 -36.625 L 8.296875 -64.8125 L 0.25 -64.8125 C -1.28125 -67.707031 -2.34375 -70.472656 -2.9375 -73.109375 L -2.171875 -74.390625 L 32.53125 -74.390625 L 33.171875 -73.5 L 36.109375 -66.34375 L 35.59375 -64.8125 L 28.203125 -64.8125 C 26.492188 -64.8125 25.320312 -64.554688 24.6875 -64.046875 C 24.050781 -63.535156 23.601562 -62.472656 23.34375 -60.859375 C 22.925781 -58.222656 22.351562 -53.179688 21.625 -45.734375 C 20.90625 -38.296875 20.546875 -33.515625 20.546875 -31.390625 C 20.546875 -29.085938 21.097656 -27.40625 22.203125 -26.34375 C 23.304688 -25.28125 24.707031 -24.75 26.40625 -24.75 C 29.46875 -24.75 33.101562 -26.363281 37.3125 -29.59375 C 41.53125 -32.832031 45.382812 -36.40625 48.875 -40.3125 Z M 53.84375 -26.15625 "/></g></g></g><g fill="#e61f93" fill-opacity="1"><g transform="translate(203.610156, 521.906358)"><g><path d="M 74.640625 -64.8125 L 68 -64.8125 C 65.707031 -64.8125 64.050781 -64.425781 63.03125 -63.65625 C 62.007812 -62.894531 61.414062 -61.410156 61.25 -59.203125 C 60.820312 -54.441406 60.414062 -48.632812 60.03125 -41.78125 C 59.644531 -34.9375 59.453125 -29.300781 59.453125 -24.875 L 60.484375 6 L 58.4375 6.890625 L 44.53125 0.125 C 45.125 -6.84375 45.550781 -13.222656 45.8125 -19.015625 C 42.320312 -16.546875 38.445312 -15.3125 34.1875 -15.3125 C 29.425781 -15.3125 24.789062 -16.609375 20.28125 -19.203125 C 15.78125 -21.796875 11.972656 -25.28125 8.859375 -29.65625 C 5.753906 -34.039062 3.90625 -38.742188 3.3125 -43.765625 C 8.757812 -47.765625 12.503906 -50.890625 14.546875 -53.140625 C 16.585938 -55.398438 17.609375 -57.59375 17.609375 -59.71875 C 17.609375 -61.332031 17.179688 -62.582031 16.328125 -63.46875 C 15.484375 -64.363281 14.296875 -64.8125 12.765625 -64.8125 L 0.25 -64.8125 C -1.363281 -68.21875 -2.425781 -70.984375 -2.9375 -73.109375 L -2.171875 -74.390625 L 71.453125 -74.390625 L 72.21875 -73.5 L 75.03125 -66.34375 Z M 46.4375 -37.890625 C 46.4375 -44.953125 46.097656 -53.925781 45.421875 -64.8125 L 24.375 -64.8125 C 28.375 -60.820312 30.375 -56.738281 30.375 -52.5625 C 30.375 -45.925781 25.566406 -39.800781 15.953125 -34.1875 C 16.710938 -31.46875 18.03125 -29.363281 19.90625 -27.875 C 21.78125 -26.382812 24.035156 -25.640625 26.671875 -25.640625 C 29.816406 -25.640625 33.21875 -26.765625 36.875 -29.015625 C 40.53125 -31.273438 43.71875 -34.234375 46.4375 -37.890625 Z M 46.4375 -37.890625 "/></g></g></g><g fill="#e61f93" fill-opacity="1"><g transform="translate(275.827281, 521.906358)"><g><path d="M 40.453125 -64.8125 L 33.8125 -64.8125 C 31.519531 -64.8125 29.863281 -64.425781 28.84375 -63.65625 C 27.820312 -62.894531 27.222656 -61.410156 27.046875 -59.203125 C 26.617188 -54.441406 26.210938 -48.632812 25.828125 -41.78125 C 25.453125 -34.9375 25.265625 -29.300781 25.265625 -24.875 L 26.28125 6 L 24.25 6.890625 L 10.328125 0.125 C 11.609375 -16.632812 12.25 -29.304688 12.25 -37.890625 C 12.25 -44.953125 11.910156 -53.925781 11.234375 -64.8125 L 0.25 -64.8125 C -1.28125 -67.707031 -2.34375 -70.472656 -2.9375 -73.109375 L -2.171875 -74.390625 L 37.25 -74.390625 L 38.015625 -73.5 L 40.828125 -66.34375 Z M 40.453125 -64.8125 "/></g></g></g><g fill="#e61f93" fill-opacity="1"><g transform="translate(313.849723, 521.906358)"><g><path d="M 35.59375 -64.8125 C 38.40625 -59.882812 39.8125 -55.164062 39.8125 -50.65625 C 39.8125 -46.40625 38.445312 -42.21875 35.71875 -38.09375 C 33 -33.96875 28.707031 -29.648438 22.84375 -25.140625 C 29.894531 -17.222656 37.503906 -10.289062 45.671875 -4.34375 L 45.671875 -1.90625 L 36.625 5.484375 C 23.007812 -8.035156 12.078125 -22.582031 3.828125 -38.15625 L 6.890625 -43.640625 C 9.785156 -43.804688 11.828125 -43.890625 13.015625 -43.890625 C 15.398438 -43.890625 17.738281 -43.765625 20.03125 -43.515625 C 25.132812 -48.867188 27.6875 -53.585938 27.6875 -57.671875 C 27.6875 -59.878906 27.132812 -61.617188 26.03125 -62.890625 C 24.925781 -64.171875 23.4375 -64.8125 21.5625 -64.8125 L 0.25 -64.8125 C -1.28125 -68.132812 -2.34375 -70.898438 -2.9375 -73.109375 L -2.171875 -74.390625 L 49.890625 -74.390625 L 50.65625 -73.5 L 53.59375 -66.34375 L 53.078125 -64.8125 Z M 35.59375 -64.8125 "/></g></g></g><path stroke-linecap="butt" transform="matrix(2.004047, 0, 0, 2.004047, 167.476647, 445.691642)" fill="none" stroke-linejoin="miter" d="M -0.0000420404 2.999671 L 234.96197 2.999671 " stroke="#e61f93" stroke-width="6" stroke-opacity="1" stroke-miterlimit="4"/></svg>