<svg width="739" height="773" viewBox="0 0 739 773" fill="none" xmlns="http://www.w3.org/2000/svg">
<g style="mix-blend-mode:color">
<mask id="mask0_1_336" style="mask-type:alpha" maskUnits="userSpaceOnUse" x="0" y="0" width="739" height="771">
<mask id="mask1_1_336" style="mask-type:luminance" maskUnits="userSpaceOnUse" x="0" y="0" width="739" height="773">
<path d="M0 0H739V772.013H0V0Z" fill="white"/>
</mask>
<g mask="url(#mask1_1_336)">
<mask id="mask2_1_336" style="mask-type:luminance" maskUnits="userSpaceOnUse" x="0" y="-55" width="784" height="832">
<path d="M0.282898 659.678L697.488 -54.9864L783.001 62.0344L85.8007 776.699L0.282898 659.678Z" fill="white"/>
</mask>
<g mask="url(#mask2_1_336)">
<mask id="mask3_1_336" style="mask-type:luminance" maskUnits="userSpaceOnUse" x="0" y="-55" width="784" height="832">
<path d="M0.282898 659.678L697.488 -54.9864L783.001 62.0344L85.8007 776.699L0.282898 659.678Z" fill="white"/>
</mask>
<g mask="url(#mask3_1_336)">
<path d="M738.429 0.471313L597.369 47.9157L643.911 83.5416L431.037 301.744C428.591 298.393 425.94 295.247 422.88 292.515C404.869 277.062 380.553 281.043 368.34 301.102C361.799 311.995 359.56 323.927 361.128 338.653C344.023 333.15 330.323 337.142 319.069 350.773C304.956 367.754 304.726 396.468 319.529 414.789C319.706 415.028 319.879 415.272 320.057 415.51L181.983 557.043L101.074 556.639L80.8569 577.363L161.767 577.761L141.55 598.484L60.6403 598.087L40.4237 618.804L121.333 619.208L101.121 639.931L20.6146 639.113L0.39801 659.837L94.5616 660.467L81.581 770.929L101.798 750.211L113.071 655.316L133.288 634.593L122.014 729.487L142.231 708.764L153.504 613.869L173.716 593.151L162.443 688.04L182.659 667.322L193.933 572.428L335.847 426.96C338.259 427.84 340.873 428.51 343.687 428.976C370.555 432.843 396.823 431.043 423.317 428.59C424.851 428.272 427.105 425.545 427.412 423.552C430.984 402.306 434.552 381.06 436.81 359.479C438.302 347.484 438.484 335.155 438.086 323.001C437.909 322.757 438.11 322.552 437.937 322.314L655.055 99.7558L678.552 159.007L738.429 0.471313ZM650.078 88.1077L650.452 88.1418L650.428 88.5847L650.078 88.1077Z" fill="#E61F93"/>
</g>
</g>
</g>
</mask>
<g mask="url(#mask0_1_336)">
<path d="M971 891H-203V-131H971V891ZM353.478 105.489C311.793 66.4867 258.083 51.1668 206.14 62.8076L206.051 62.8271L205.962 62.8486C156.312 74.659 113.313 113.592 86.7207 167.551C36.0964 270.224 71.8378 370.086 116.656 423.128L116.665 423.138L354.349 703.872V703.873C359.06 709.441 366.01 713.031 373.758 712.992L373.759 712.993C373.762 712.993 373.765 712.992 373.768 712.992C373.774 712.992 373.781 712.992 373.787 712.992C381.524 712.952 388.438 709.295 393.095 703.694L625.662 424.084L625.943 423.746L626.203 423.391C667.42 366.968 683.476 306.488 674.643 239.4H674.644C662.53 147.246 600.306 72.7568 519.958 61.9922L519.915 61.9863L519.873 61.9805L518.725 61.8379C470.1 55.9819 423.314 73.0032 387.189 109.957L387.188 109.959C382.121 115.144 377.345 120.634 372.869 126.397C367.222 119.377 361.12 112.741 354.588 106.536L353.478 105.489Z" fill="#E61F93"/>
</g>
</g>
<mask id="mask4_1_336" style="mask-type:luminance" maskUnits="userSpaceOnUse" x="67" y="59" width="612" height="654">
<path d="M91.2621 164.245C41.6408 265.09 76.5999 363.255 120.531 415.353L368.34 708.647C370.705 711.448 373.969 713.021 377.38 713C380.786 712.986 384.043 711.377 386.383 708.555L628.855 416.439C669.715 360.391 685.374 300.949 676.675 234.749C664.662 143.18 603.493 72.1334 527.928 61.9889C481.589 56.056 436.816 72.0134 401.875 107.83C392.47 117.473 384.067 128.246 376.742 139.956C368.049 126.623 357.857 114.426 346.328 103.618C306.149 65.9465 255.005 51.5834 205.873 62.6167C159.347 73.7065 117.577 110.736 91.2621 164.245Z" fill="white"/>
</mask>
<g mask="url(#mask4_1_336)">
<path d="M91.2621 164.245C41.6408 265.09 76.5999 363.255 120.531 415.353L368.34 708.647C370.706 711.448 373.969 713.021 377.38 713C380.786 712.986 384.043 711.377 386.383 708.556L628.855 416.439C669.715 360.391 685.374 300.949 676.675 234.749C664.663 143.18 603.494 72.1334 527.928 61.9889C481.589 56.056 436.816 72.0134 401.875 107.83C392.47 117.473 384.068 128.246 376.743 139.956C368.049 126.623 357.858 114.426 346.328 103.618C306.15 65.9465 255.005 51.5834 205.873 62.6167C159.347 73.7065 117.577 110.736 91.2621 164.245Z" stroke="#E61F93" stroke-width="27.9862"/>
</g>
<path d="M313.095 285.985C308.932 290.917 304.668 294.853 300.306 297.793C295.955 300.738 291.935 302.208 288.249 302.208C284.371 302.208 280.249 300.53 275.888 297.162C271.537 293.8 267.907 289.687 265.01 284.824C262.108 279.967 260.659 275.432 260.659 271.225L261.228 231.386H252.079C250.346 227.299 249.141 223.388 248.46 219.654L249.334 217.863H288.839L289.551 219.124L292.905 229.216L292.316 231.386H283.898C281.957 231.386 280.625 231.752 279.893 232.471C279.171 233.197 278.663 234.691 278.368 236.962C277.89 240.696 277.24 247.824 276.416 258.332C275.588 268.847 275.176 275.609 275.176 278.618C275.176 281.847 275.806 284.219 277.067 285.733C278.327 287.234 279.923 287.978 281.865 287.978C285.347 287.978 289.48 285.701 294.268 281.141C299.066 276.568 303.448 271.515 307.423 265.977L313.095 285.985Z" fill="#E61F93"/>
<path d="M414.167 230.901H406.603C403.986 230.901 402.095 231.443 400.931 232.516C399.777 233.594 399.106 235.695 398.918 238.823C398.43 245.553 397.967 253.753 397.535 263.423C397.098 273.099 396.885 281.059 396.885 287.316L398.044 330.939L395.705 332.201L379.887 322.638C381.336 298.972 382.063 281.071 382.063 268.923C382.063 258.951 381.676 246.279 380.904 230.901H368.399C366.666 226.814 365.462 222.903 364.78 219.169L365.655 217.377H410.527L411.402 218.639L414.594 228.731L414.167 230.901Z" fill="#E61F93"/>
<path d="M451.915 230.901C455.112 237.864 456.713 244.538 456.713 250.909C456.713 256.913 455.158 262.836 452.057 268.671C448.967 274.493 444.077 280.592 437.398 286.963C445.434 298.134 454.1 307.923 463.402 316.331V319.762L453.074 330.208C437.581 311.102 425.137 290.558 415.744 268.57L419.241 260.824C422.535 260.572 424.858 260.446 426.215 260.446C428.924 260.446 431.588 260.635 434.206 261.001C440.005 253.432 442.908 246.764 442.908 240.993C442.908 237.864 442.277 235.404 441.017 233.601C439.766 231.803 438.074 230.901 435.934 230.901H411.678C409.944 226.208 408.74 222.297 408.059 219.169L408.933 217.377H468.18L469.055 218.639L472.389 228.731L471.82 230.901H451.915Z" fill="#E61F93"/>
<path d="M380.144 230.901H372.601C369.983 230.901 368.092 231.443 366.928 232.516C365.759 233.594 365.083 235.695 364.895 238.823C364.407 245.553 363.944 253.753 363.512 263.423C363.075 273.099 362.862 281.059 362.862 287.316L364.021 330.939L361.703 332.201L345.864 322.638C346.54 312.786 347.028 303.779 347.328 295.617C343.353 299.098 338.951 300.839 334.112 300.839C328.689 300.839 323.407 299.01 318.274 295.339C313.135 291.674 308.799 286.748 305.261 280.554C301.734 274.366 299.634 267.731 298.958 260.647C305.149 254.996 309.409 250.58 311.727 247.401C314.055 244.21 315.224 241.113 315.224 238.117C315.224 235.833 314.736 234.055 313.76 232.793C312.794 231.532 311.442 230.901 309.694 230.901H295.461C293.631 226.094 292.427 222.184 291.842 219.169L292.716 217.377H376.525L377.399 218.639L380.591 228.731L380.144 230.901ZM348.04 268.923C348.04 258.951 347.653 246.279 346.881 230.901H322.93C327.469 236.552 329.741 242.324 329.741 248.209C329.741 257.582 324.272 266.223 313.333 274.146C314.197 278 315.697 280.977 317.826 283.077C319.966 285.184 322.533 286.231 325.532 286.231C329.111 286.231 332.979 284.641 337.142 281.462C341.315 278.271 344.949 274.089 348.04 268.923Z" fill="#E61F93"/>
<path d="M345.041 378.109C345.041 378.109 345.452 378.905 346.279 380.498C347.1 382.08 348.222 384.168 349.643 386.762C351.059 389.361 352.717 392.261 354.611 395.458C356.506 398.66 358.526 401.883 360.682 405.122C362.833 408.351 365.042 411.397 367.313 414.249C369.58 417.09 371.789 419.458 373.945 421.352C373.945 421.352 373.312 421.46 372.05 421.675C370.784 421.89 369.208 421.998 367.313 421.998C365.791 421.998 364.181 421.858 362.48 421.589C360.779 421.304 359.164 420.771 357.647 419.996C356.574 419.366 355.153 417.962 353.374 415.777C351.605 413.598 349.681 411.015 347.593 408.028C345.515 405.031 343.499 401.99 341.542 398.902C339.58 395.802 337.84 393.004 336.322 390.507C334.814 388.01 333.775 386.234 333.209 385.169V409.535C333.209 409.535 333.253 410.116 333.344 411.278C333.431 412.441 333.717 413.942 334.195 415.777C334.669 417.601 335.476 419.496 336.612 421.46H317.955C319.154 419.985 319.985 418.382 320.449 416.66C320.923 414.938 321.227 413.399 321.358 412.032C321.483 410.654 321.551 409.826 321.551 409.535V359.963C321.551 359.619 321.483 358.779 321.358 357.445C321.227 356.1 320.913 354.561 320.41 352.839C319.908 351.117 319.086 349.518 317.955 348.039H336.612C335.476 350.008 334.669 351.924 334.195 353.786C333.717 355.653 333.431 357.165 333.344 358.327C333.253 359.49 333.209 360.071 333.209 360.071V380.95C333.325 380.751 334.219 379.739 335.897 377.915C337.569 376.08 339.749 373.583 342.431 370.424C345.123 367.255 348.081 363.526 351.305 359.231C352.18 358.171 352.62 357.154 352.62 356.175C352.117 353.221 350.981 350.509 349.217 348.039L368.164 348.146C365.133 351.666 362.509 354.776 360.295 357.488C358.091 360.2 356.148 362.665 354.476 364.871C352.799 367.083 351.218 369.241 349.739 371.35C348.255 373.459 346.689 375.714 345.041 378.109Z" fill="#E61F93"/>
<path d="M400.857 415.562C402.312 415.562 403.796 415.444 405.304 415.196C406.821 414.954 408.281 414.69 409.673 414.4C409.48 414.69 409.035 415.293 408.339 416.208C407.643 417.112 406.676 418.113 405.439 419.2C404.211 420.292 402.636 421.239 400.702 422.041C398.779 422.859 396.492 423.268 393.839 423.268C387.845 423.268 383.031 420.965 379.397 416.358C375.762 411.752 373.945 404.52 373.945 394.661C373.945 389.468 374.65 384.846 376.071 380.799C377.502 376.753 379.677 373.578 382.606 371.264C385.545 368.939 389.32 367.777 393.935 367.777C396.652 367.777 398.962 368.164 400.857 368.939C402.752 369.714 404.279 370.613 405.439 371.63C406.609 372.652 407.479 373.546 408.049 374.32C408.614 375.085 408.9 375.461 408.9 375.461L387.594 404.8C387.594 404.8 387.604 404.945 387.633 405.23C387.671 405.504 387.812 405.919 388.058 406.478C389.189 409.293 390.422 411.338 391.751 412.613C393.075 413.878 394.501 414.69 396.023 415.045C397.541 415.39 399.156 415.562 400.857 415.562ZM382.471 381.273C382.471 383.167 382.674 385.228 383.089 387.451C383.5 389.662 383.969 391.772 384.501 393.779C385.042 395.775 385.496 397.427 385.873 398.73C386.26 400.037 386.453 400.726 386.453 400.796C386.453 400.796 386.811 400.204 387.536 399.009C388.271 397.804 389.126 396.362 390.107 394.683C391.084 392.993 392.031 391.39 392.949 389.883C393.863 388.365 394.54 387.251 394.979 386.546C396.565 383.877 397.164 381.757 396.777 380.175C396.4 378.582 395.294 377.42 393.452 376.688C391.62 375.946 389.382 375.472 386.743 375.267C385.09 375.198 383.984 375.671 383.418 376.688C382.848 377.711 382.534 379.239 382.471 381.273Z" fill="#E61F93"/>
<path d="M367.545 464.504H359.711C357 464.504 355.042 465.053 353.836 466.144C352.641 467.222 351.941 469.322 351.73 472.45C351.236 479.179 350.762 487.377 350.298 497.044C349.846 506.718 349.625 514.677 349.625 520.932L350.825 564.546L348.424 565.807L332.02 556.247C332.62 546.763 333.126 537.877 333.536 529.584L332.631 528.853C330.425 530.909 328.019 532.561 325.408 533.822C322.797 535.083 320.591 535.714 318.795 535.714C314.679 535.714 310.314 534.037 305.697 530.669C301.075 527.289 297.237 523.146 294.179 518.233C291.115 513.308 289.588 508.673 289.588 504.334L290.051 464.504H281.165C279.369 460.418 278.122 456.521 277.416 452.8L278.322 450.984H364.07L364.829 452.245L368.135 462.36L367.545 464.504ZM334.273 502.543C334.273 492.573 333.873 479.891 333.073 464.504H313.973C311.962 464.504 310.583 464.902 309.825 465.69C309.077 466.466 308.551 467.935 308.245 470.104C307.656 474.43 306.95 481.758 306.14 492.1C305.339 502.43 304.939 509.215 304.939 512.457C304.939 515.219 305.539 517.35 306.75 518.864C307.956 520.365 309.509 521.109 311.404 521.109C314.21 521.109 317.874 519.545 322.396 516.417C326.913 513.289 330.872 509.505 334.273 505.066V502.543Z" fill="#E61F93"/>
<path d="M450.712 464.504H442.879C440.167 464.504 438.209 465.053 437.003 466.144C435.808 467.222 435.113 469.322 434.919 472.45C434.413 479.179 433.934 487.377 433.487 497.044C433.034 506.718 432.813 514.677 432.813 520.932L434.013 564.546L431.591 565.807L415.208 556.247L416.556 533.721L416.998 524.893L386.169 553.018L376.082 539.498V537.328L414.892 504.713C406.369 496.307 400.152 492.1 396.235 492.1C394.224 492.1 392.218 492.908 390.212 494.522C388.217 496.136 384.211 499.832 378.188 505.596L367.659 491.545V489.023C376.082 480.737 383.547 476.587 390.065 476.587C396.888 476.587 405.969 481.758 417.314 492.1C417.103 484.047 416.751 474.847 416.261 464.504H365.09C363.295 460.418 362.047 456.521 361.341 452.8L362.247 450.984H446.943L447.848 452.245L451.154 462.36L450.712 464.504Z" fill="#E61F93"/>
</svg>
